<mxfile host="app.diagrams.net" modified="2023-07-03T13:33:39.385Z" agent="Mozilla/5.0 (Windows NT 10.0; Win64; x64) AppleWebKit/537.36 (KHTML, like Gecko) Chrome/114.0.0.0 Safari/537.36" version="21.5.2" etag="62W6kYJuHnkacoHOLGhY" type="device">
  <diagram id="C5RBs43oDa-KdzZeNtuy" name="Page-1">
    <mxGraphModel dx="933" dy="408" grid="1" gridSize="10" guides="1" tooltips="1" connect="1" arrows="1" fold="1" page="1" pageScale="1" pageWidth="827" pageHeight="1169" math="0" shadow="0">
      <root>
        <mxCell id="WIyWlLk6GJQsqaUBKTNV-0" />
        <mxCell id="WIyWlLk6GJQsqaUBKTNV-1" parent="WIyWlLk6GJQsqaUBKTNV-0" />
        <mxCell id="DP0SXkxrdd04V-Bajsjn-0" value="Frontend" style="rounded=0;whiteSpace=wrap;html=1;" vertex="1" parent="WIyWlLk6GJQsqaUBKTNV-1">
          <mxGeometry x="155" y="50" width="120" height="60" as="geometry" />
        </mxCell>
        <mxCell id="DP0SXkxrdd04V-Bajsjn-1" value="Actor" style="shape=umlActor;verticalLabelPosition=bottom;verticalAlign=top;html=1;outlineConnect=0;" vertex="1" parent="WIyWlLk6GJQsqaUBKTNV-1">
          <mxGeometry x="25" y="50" width="30" height="60" as="geometry" />
        </mxCell>
        <mxCell id="DP0SXkxrdd04V-Bajsjn-2" value="" style="endArrow=none;html=1;rounded=0;" edge="1" parent="WIyWlLk6GJQsqaUBKTNV-1" source="DP0SXkxrdd04V-Bajsjn-34">
          <mxGeometry width="50" height="50" relative="1" as="geometry">
            <mxPoint x="39.5" y="470" as="sourcePoint" />
            <mxPoint x="39.5" y="140" as="targetPoint" />
          </mxGeometry>
        </mxCell>
        <mxCell id="DP0SXkxrdd04V-Bajsjn-3" value="Backend" style="rounded=0;whiteSpace=wrap;html=1;" vertex="1" parent="WIyWlLk6GJQsqaUBKTNV-1">
          <mxGeometry x="365" y="50" width="120" height="60" as="geometry" />
        </mxCell>
        <mxCell id="DP0SXkxrdd04V-Bajsjn-4" value="" style="endArrow=none;html=1;rounded=0;" edge="1" parent="WIyWlLk6GJQsqaUBKTNV-1" source="DP0SXkxrdd04V-Bajsjn-30">
          <mxGeometry width="50" height="50" relative="1" as="geometry">
            <mxPoint x="214.5" y="460" as="sourcePoint" />
            <mxPoint x="214.5" y="130" as="targetPoint" />
          </mxGeometry>
        </mxCell>
        <mxCell id="DP0SXkxrdd04V-Bajsjn-5" value="" style="endArrow=none;html=1;rounded=0;" edge="1" parent="WIyWlLk6GJQsqaUBKTNV-1" source="DP0SXkxrdd04V-Bajsjn-11">
          <mxGeometry width="50" height="50" relative="1" as="geometry">
            <mxPoint x="424.5" y="460" as="sourcePoint" />
            <mxPoint x="424.5" y="130" as="targetPoint" />
          </mxGeometry>
        </mxCell>
        <mxCell id="DP0SXkxrdd04V-Bajsjn-9" style="edgeStyle=orthogonalEdgeStyle;rounded=0;orthogonalLoop=1;jettySize=auto;html=1;exitX=1;exitY=0.5;exitDx=0;exitDy=0;entryX=0;entryY=0;entryDx=0;entryDy=0;" edge="1" parent="WIyWlLk6GJQsqaUBKTNV-1">
          <mxGeometry relative="1" as="geometry">
            <mxPoint x="45" y="192" as="sourcePoint" />
            <mxPoint x="210" y="192" as="targetPoint" />
          </mxGeometry>
        </mxCell>
        <mxCell id="DP0SXkxrdd04V-Bajsjn-6" value="" style="rounded=0;whiteSpace=wrap;html=1;" vertex="1" parent="WIyWlLk6GJQsqaUBKTNV-1">
          <mxGeometry x="35" y="175" width="10" height="30" as="geometry" />
        </mxCell>
        <mxCell id="DP0SXkxrdd04V-Bajsjn-14" style="edgeStyle=orthogonalEdgeStyle;rounded=0;orthogonalLoop=1;jettySize=auto;html=1;exitX=1;exitY=0.5;exitDx=0;exitDy=0;entryX=0.1;entryY=0.127;entryDx=0;entryDy=0;entryPerimeter=0;" edge="1" parent="WIyWlLk6GJQsqaUBKTNV-1" source="DP0SXkxrdd04V-Bajsjn-7" target="DP0SXkxrdd04V-Bajsjn-11">
          <mxGeometry relative="1" as="geometry" />
        </mxCell>
        <mxCell id="DP0SXkxrdd04V-Bajsjn-7" value="" style="rounded=0;whiteSpace=wrap;html=1;" vertex="1" parent="WIyWlLk6GJQsqaUBKTNV-1">
          <mxGeometry x="210" y="190" width="10" height="30" as="geometry" />
        </mxCell>
        <mxCell id="DP0SXkxrdd04V-Bajsjn-10" value="Usuário coloca login/senha" style="text;html=1;strokeColor=none;fillColor=none;align=center;verticalAlign=middle;whiteSpace=wrap;rounded=0;" vertex="1" parent="WIyWlLk6GJQsqaUBKTNV-1">
          <mxGeometry x="45" y="170" width="160" height="30" as="geometry" />
        </mxCell>
        <mxCell id="DP0SXkxrdd04V-Bajsjn-13" value="" style="endArrow=none;html=1;rounded=0;" edge="1" parent="WIyWlLk6GJQsqaUBKTNV-1" source="DP0SXkxrdd04V-Bajsjn-23" target="DP0SXkxrdd04V-Bajsjn-11">
          <mxGeometry width="50" height="50" relative="1" as="geometry">
            <mxPoint x="424.5" y="460" as="sourcePoint" />
            <mxPoint x="424.5" y="130" as="targetPoint" />
          </mxGeometry>
        </mxCell>
        <mxCell id="DP0SXkxrdd04V-Bajsjn-22" style="edgeStyle=orthogonalEdgeStyle;rounded=0;orthogonalLoop=1;jettySize=auto;html=1;entryX=0;entryY=0.25;entryDx=0;entryDy=0;" edge="1" parent="WIyWlLk6GJQsqaUBKTNV-1" source="DP0SXkxrdd04V-Bajsjn-11" target="DP0SXkxrdd04V-Bajsjn-19">
          <mxGeometry relative="1" as="geometry" />
        </mxCell>
        <mxCell id="DP0SXkxrdd04V-Bajsjn-11" value="" style="rounded=0;whiteSpace=wrap;html=1;" vertex="1" parent="WIyWlLk6GJQsqaUBKTNV-1">
          <mxGeometry x="420" y="201" width="10" height="30" as="geometry" />
        </mxCell>
        <mxCell id="DP0SXkxrdd04V-Bajsjn-15" value="Informações enviadas ao back" style="text;html=1;strokeColor=none;fillColor=none;align=center;verticalAlign=middle;whiteSpace=wrap;rounded=0;" vertex="1" parent="WIyWlLk6GJQsqaUBKTNV-1">
          <mxGeometry x="232" y="180" width="170" height="30" as="geometry" />
        </mxCell>
        <mxCell id="DP0SXkxrdd04V-Bajsjn-16" value="Cognito" style="rounded=0;whiteSpace=wrap;html=1;" vertex="1" parent="WIyWlLk6GJQsqaUBKTNV-1">
          <mxGeometry x="554" y="50" width="120" height="60" as="geometry" />
        </mxCell>
        <mxCell id="DP0SXkxrdd04V-Bajsjn-17" value="" style="endArrow=none;html=1;rounded=0;" edge="1" parent="WIyWlLk6GJQsqaUBKTNV-1" source="DP0SXkxrdd04V-Bajsjn-19">
          <mxGeometry width="50" height="50" relative="1" as="geometry">
            <mxPoint x="613.5" y="460" as="sourcePoint" />
            <mxPoint x="613.5" y="130" as="targetPoint" />
          </mxGeometry>
        </mxCell>
        <mxCell id="DP0SXkxrdd04V-Bajsjn-18" value="" style="endArrow=none;html=1;rounded=0;" edge="1" parent="WIyWlLk6GJQsqaUBKTNV-1" target="DP0SXkxrdd04V-Bajsjn-19">
          <mxGeometry width="50" height="50" relative="1" as="geometry">
            <mxPoint x="613.5" y="460" as="sourcePoint" />
            <mxPoint x="613.5" y="130" as="targetPoint" />
          </mxGeometry>
        </mxCell>
        <mxCell id="DP0SXkxrdd04V-Bajsjn-19" value="" style="rounded=0;whiteSpace=wrap;html=1;" vertex="1" parent="WIyWlLk6GJQsqaUBKTNV-1">
          <mxGeometry x="609" y="197" width="10" height="77" as="geometry" />
        </mxCell>
        <mxCell id="DP0SXkxrdd04V-Bajsjn-21" value="Informações enviadas para validação" style="text;html=1;strokeColor=none;fillColor=none;align=center;verticalAlign=middle;whiteSpace=wrap;rounded=0;" vertex="1" parent="WIyWlLk6GJQsqaUBKTNV-1">
          <mxGeometry x="431" y="185" width="170" height="30" as="geometry" />
        </mxCell>
        <mxCell id="DP0SXkxrdd04V-Bajsjn-24" value="" style="endArrow=none;html=1;rounded=0;" edge="1" parent="WIyWlLk6GJQsqaUBKTNV-1" target="DP0SXkxrdd04V-Bajsjn-23">
          <mxGeometry width="50" height="50" relative="1" as="geometry">
            <mxPoint x="424.5" y="460" as="sourcePoint" />
            <mxPoint x="425" y="231" as="targetPoint" />
          </mxGeometry>
        </mxCell>
        <mxCell id="DP0SXkxrdd04V-Bajsjn-32" style="edgeStyle=orthogonalEdgeStyle;rounded=0;orthogonalLoop=1;jettySize=auto;html=1;exitX=0;exitY=0.5;exitDx=0;exitDy=0;entryX=1;entryY=0.25;entryDx=0;entryDy=0;" edge="1" parent="WIyWlLk6GJQsqaUBKTNV-1" source="DP0SXkxrdd04V-Bajsjn-23" target="DP0SXkxrdd04V-Bajsjn-30">
          <mxGeometry relative="1" as="geometry" />
        </mxCell>
        <mxCell id="DP0SXkxrdd04V-Bajsjn-23" value="" style="rounded=0;whiteSpace=wrap;html=1;" vertex="1" parent="WIyWlLk6GJQsqaUBKTNV-1">
          <mxGeometry x="420" y="254" width="10" height="30" as="geometry" />
        </mxCell>
        <mxCell id="DP0SXkxrdd04V-Bajsjn-28" style="edgeStyle=orthogonalEdgeStyle;rounded=0;orthogonalLoop=1;jettySize=auto;html=1;entryX=0;entryY=0.25;entryDx=0;entryDy=0;startArrow=classic;startFill=1;endArrow=none;endFill=0;" edge="1" parent="WIyWlLk6GJQsqaUBKTNV-1">
          <mxGeometry relative="1" as="geometry">
            <mxPoint x="430" y="268.83" as="sourcePoint" />
            <mxPoint x="609" y="268.83" as="targetPoint" />
          </mxGeometry>
        </mxCell>
        <mxCell id="DP0SXkxrdd04V-Bajsjn-29" value="devolve token" style="text;html=1;strokeColor=none;fillColor=none;align=center;verticalAlign=middle;whiteSpace=wrap;rounded=0;" vertex="1" parent="WIyWlLk6GJQsqaUBKTNV-1">
          <mxGeometry x="437" y="247" width="170" height="30" as="geometry" />
        </mxCell>
        <mxCell id="DP0SXkxrdd04V-Bajsjn-31" value="" style="endArrow=none;html=1;rounded=0;" edge="1" parent="WIyWlLk6GJQsqaUBKTNV-1" target="DP0SXkxrdd04V-Bajsjn-30">
          <mxGeometry width="50" height="50" relative="1" as="geometry">
            <mxPoint x="214.5" y="460" as="sourcePoint" />
            <mxPoint x="214.5" y="130" as="targetPoint" />
          </mxGeometry>
        </mxCell>
        <mxCell id="DP0SXkxrdd04V-Bajsjn-36" style="edgeStyle=orthogonalEdgeStyle;rounded=0;orthogonalLoop=1;jettySize=auto;html=1;exitX=0;exitY=0.75;exitDx=0;exitDy=0;entryX=1;entryY=0.25;entryDx=0;entryDy=0;" edge="1" parent="WIyWlLk6GJQsqaUBKTNV-1" source="DP0SXkxrdd04V-Bajsjn-30" target="DP0SXkxrdd04V-Bajsjn-34">
          <mxGeometry relative="1" as="geometry" />
        </mxCell>
        <mxCell id="DP0SXkxrdd04V-Bajsjn-30" value="" style="rounded=0;whiteSpace=wrap;html=1;" vertex="1" parent="WIyWlLk6GJQsqaUBKTNV-1">
          <mxGeometry x="210" y="262" width="10" height="30" as="geometry" />
        </mxCell>
        <mxCell id="DP0SXkxrdd04V-Bajsjn-33" value="salva e devolve token" style="text;html=1;strokeColor=none;fillColor=none;align=center;verticalAlign=middle;whiteSpace=wrap;rounded=0;" vertex="1" parent="WIyWlLk6GJQsqaUBKTNV-1">
          <mxGeometry x="230" y="244" width="170" height="30" as="geometry" />
        </mxCell>
        <mxCell id="DP0SXkxrdd04V-Bajsjn-35" value="" style="endArrow=none;html=1;rounded=0;" edge="1" parent="WIyWlLk6GJQsqaUBKTNV-1" target="DP0SXkxrdd04V-Bajsjn-34">
          <mxGeometry width="50" height="50" relative="1" as="geometry">
            <mxPoint x="39.5" y="470" as="sourcePoint" />
            <mxPoint x="39.5" y="140" as="targetPoint" />
          </mxGeometry>
        </mxCell>
        <mxCell id="DP0SXkxrdd04V-Bajsjn-34" value="" style="rounded=0;whiteSpace=wrap;html=1;" vertex="1" parent="WIyWlLk6GJQsqaUBKTNV-1">
          <mxGeometry x="35" y="277" width="10" height="30" as="geometry" />
        </mxCell>
        <mxCell id="DP0SXkxrdd04V-Bajsjn-37" value="devolve token" style="text;html=1;strokeColor=none;fillColor=none;align=center;verticalAlign=middle;whiteSpace=wrap;rounded=0;" vertex="1" parent="WIyWlLk6GJQsqaUBKTNV-1">
          <mxGeometry x="35" y="262" width="170" height="30" as="geometry" />
        </mxCell>
      </root>
    </mxGraphModel>
  </diagram>
</mxfile>
